<svg xmlns="http://www.w3.org/2000/svg" width="1200" height="630" viewBox="0 0 1200 630">
  <defs>
    <linearGradient id="bg" x1="0" x2="0" y1="0" y2="1">
      <stop offset="0" stop-color="#f4f4f4"/>
      <stop offset="1" stop-color="#ffffff"/>
    </linearGradient>
    <filter id="shadow" x="-20%" y="-20%" width="140%" height="140%">
      <feDropShadow dx="0" dy="10" stdDeviation="14" flood-color="#000000" flood-opacity="0.18"/>
    </filter>
  </defs>
  <rect width="1200" height="630" fill="url(#bg)"/>
  <rect x="355" y="55" rx="44" ry="44" width="490" height="520" fill="#0b1220" opacity="0.08"/>
  <rect x="365" y="65" rx="40" ry="40" width="470" height="500" fill="#ffffff" filter="url(#shadow)"/>
  <rect x="395" y="95" rx="16" ry="16" width="410" height="90" fill="#003087"/>
  <text x="600" y="132" text-anchor="middle" font-family="system-ui, -apple-system, Segoe UI, Roboto, Arial" font-size="20" fill="#ffffff" font-weight="700">
    Ferretería Trujillo
  </text>
  <text x="600" y="158" text-anchor="middle" font-family="system-ui, -apple-system, Segoe UI, Roboto, Arial" font-size="16" fill="#ffffff" opacity="0.92">
    Compra S/ 450 — Prototipo BNPL
  </text>

  <rect x="395" y="205" rx="18" ry="18" width="410" height="320" fill="#ffffff" stroke="#e2e8f0"/>
  <text x="420" y="245" font-family="system-ui, -apple-system, Segoe UI, Roboto, Arial" font-size="18" fill="#0f172a" font-weight="700">
    Selecciona tus cuotas
  </text>

  <rect x="420" y="268" rx="14" ry="14" width="360" height="56" fill="#f0f7ff" stroke="#003087" stroke-width="2"/>
  <text x="440" y="300" font-family="system-ui, -apple-system, Segoe UI, Roboto, Arial" font-size="16" fill="#0f172a" font-weight="700">
    3 cuotas de S/ 150
  </text>
  <text x="440" y="320" font-family="system-ui, -apple-system, Segoe UI, Roboto, Arial" font-size="13" fill="#475569">
    Sin interés
  </text>

  <rect x="420" y="334" rx="14" ry="14" width="360" height="56" fill="#ffffff" stroke="#d6d6d6" stroke-width="2"/>
  <text x="440" y="366" font-family="system-ui, -apple-system, Segoe UI, Roboto, Arial" font-size="16" fill="#0f172a" font-weight="700">
    6 cuotas de S/ 78
  </text>
  <text x="440" y="386" font-family="system-ui, -apple-system, Segoe UI, Roboto, Arial" font-size="13" fill="#475569">
    Fee total: S/ 18
  </text>

  <rect x="420" y="400" rx="14" ry="14" width="360" height="56" fill="#ffffff" stroke="#d6d6d6" stroke-width="2"/>
  <text x="440" y="432" font-family="system-ui, -apple-system, Segoe UI, Roboto, Arial" font-size="16" fill="#0f172a" font-weight="700">
    12 cuotas de S/ 41
  </text>
  <text x="440" y="452" font-family="system-ui, -apple-system, Segoe UI, Roboto, Arial" font-size="13" fill="#475569">
    Fee total: S/ 42
  </text>

  <rect x="420" y="470" rx="14" ry="14" width="360" height="48" fill="#00a651"/>
  <text x="600" y="501" text-anchor="middle" font-family="system-ui, -apple-system, Segoe UI, Roboto, Arial" font-size="16" fill="#ffffff" font-weight="800">
    Solicitar aprobación (≈ 8 segundos)
  </text>

  <text x="600" y="605" text-anchor="middle" font-family="system-ui, -apple-system, Segoe UI, Roboto, Arial" font-size="14" fill="#475569">
    treevu-ai / bnpl-caja-trujillo-prototipo
  </text>
</svg>